<svg id="Capa_1" enable-background="new 0 0 511.987 511.987" height="512" viewBox="0 0 511.987 511.987" width="512" xmlns="http://www.w3.org/2000/svg"><g><path d="m470.877 10.711c-8.623-8.624-20.915-12.371-32.882-10.025l-26.569 5.21c-25.105 4.922-49.006 15.883-69.12 31.695-6.632 5.215-9.909 13.626-8.553 21.952l1.289 7.917-14.253-5.312c-4.058-1.513-8.69-.788-12.093 1.888l-34.404 27.063c-3.255 2.561-3.818 7.276-1.258 10.532 2.562 3.255 7.278 3.819 10.532 1.258l33.301-26.195 16.97 6.324c4.221 1.572 8.818.805 12.3-2.055 3.481-2.859 5.126-7.221 4.402-11.667l-1.98-12.164c-.479-2.939.679-5.909 3.021-7.75 18.254-14.352 39.947-24.3 62.734-28.768l26.569-5.21c7.161-1.402 14.228.751 19.389 5.912 5.158 5.159 7.312 12.22 5.909 19.373l-5.19 26.441c-4.492 22.894-14.498 44.665-28.937 62.956l-76.838 97.314-29.803 2.205c-5.401.4-9.784 4.042-11.164 9.279-1.381 5.237.636 10.566 5.138 13.577l10.505 7.026-16.725 21.18c-15.312.72-33.599 1.961-46.383 2.888-5.363.388-9.741 3.991-11.153 9.178-1.414 5.192.536 10.522 4.966 13.579l20.927 14.436-16.865 21.359c-27.556-10.573-45.951-30.274-55.016-58.844l186.265-186.265c2.929-2.929 2.929-7.678 0-10.606-2.929-2.929-7.678-2.929-10.606 0l-179.792 179.791c-1.907-10.966-2.71-22.972-2.399-36.009.099-4.141-3.178-7.578-7.319-7.677-4.154-.121-7.579 3.178-7.677 7.319-.428 17.973 1.201 34.317 4.803 48.959l-45.361 45.362c-20.291-31.543-27.501-66.041-29.864-90.767l7.042-5.54 21.802 11.986c3.913 2.151 8.543 2.078 12.385-.194 3.843-2.272 6.137-6.294 6.137-10.759v-32.753l30.362-23.883c-2.029 9.284-3.669 18.508-4.882 27.578-.548 4.105 2.335 7.879 6.44 8.428.337.045.672.067 1.003.067 3.7 0 6.921-2.739 7.425-6.507 1.949-14.584 5.035-29.6 9.169-44.633l46.326-36.441c3.256-2.561 3.819-7.276 1.258-10.532s-7.277-3.818-10.531-1.258l-96.799 76.144c-3.032 2.386-4.771 5.966-4.771 9.824v29.74l-22.447-12.34c-2.638-1.449-5.885-1.183-8.25.678l-22.553 17.743c-10.687 8.416-17.118 21.035-17.645 34.626l-5.12 134.42c-.02.524.02 1.036.104 1.536-22.201 29.968-37.113 64.632-43.632 101.898-.714 4.08 2.015 7.966 6.095 8.68.438.077.872.114 1.301.114 3.575 0 6.742-2.566 7.379-6.209 6.224-35.58 20.607-68.63 42.054-97.081l34.93 6.218c.445.079.887.118 1.323.118 3.566 0 6.729-2.554 7.375-6.187.726-4.078-1.991-7.973-6.069-8.698l-26.715-4.756c3.221-3.662 6.562-7.237 10.036-10.711l37.545-37.545c18.792 23.588 43.052 41.579 72.472 53.704-7.195 8.562-18.377 12.655-29.44 10.682l-35.411-6.303c-4.08-.725-7.973 1.992-8.698 6.069-.726 4.078 1.991 7.973 6.069 8.698l35.409 6.303c2.726.486 5.456.723 8.164.723 14.016 0 27.42-6.365 36.299-17.609l64.315-81.455c2.132-2.701 3.062-6.203 2.55-9.605-.512-3.403-2.43-6.475-5.263-8.43l-17.258-11.904c12.194-.853 27.259-1.827 40.009-2.41 3.626-.166 6.996-1.894 9.243-4.74l19.109-24.199c2.154-2.728 3.079-6.261 2.537-9.694s-2.509-6.51-5.398-8.443l-6.721-4.495 23.661-1.75c3.483-.258 6.723-1.979 8.887-4.72l77.519-98.175c15.909-20.155 26.934-44.141 31.882-69.362l5.19-26.441c2.348-11.965-1.399-24.252-10.019-32.874zm-373.258 363.363c-2.709 2.709-5.337 5.479-7.902 8.295l4.435-116.453c.318-8.21 3.832-15.891 9.728-21.495 2.909 21.366 9.538 49.051 24.31 76.152 2.696 4.946 5.575 9.712 8.631 14.299zm58.747-37.534 41.596-41.596c10.667 27.691 29.85 47.784 57.021 59.417l-27.01 34.207c-32.256-12.457-55.251-31.152-71.607-52.028z"/></g></svg>