<svg viewBox="0 0 184 184" xmlns="http://www.w3.org/2000/svg"><g stroke="#fff" stroke-linecap="round" stroke-linejoin="round" stroke-width="3"><circle cx="159.53" cy="36.28" fill="#252c37" r="24.07"/><path d="m180.24 24a35.36 35.36 0 0 1 -34.86 29.47c-.95 0-1.88 0-2.81-.12a24.07 24.07 0 0 0 37.67-29.35z" fill="#fff"/><path d="m1.5 138.64.24-91.43 78.7 45.71v91.43z" fill="#252c37"/><path d="m1.74 47.21 78.82-45.71 39.34 22.86-39.46 22.85 39.46 22.86-39.46 22.85z" fill="#252c37"/><path d="m119.9 70.07v45.71l39.47-22.86.24 45.72-79.17 45.71v-91.43z" fill="#fff"/><path d="m119.9 24.36v45.71l-39.46-22.86z" fill="#fff"/><path d="m119.9 70.07 39.47 22.85-39.47 22.86z" fill="#252c37"/><path d="m80.43 139.91-78.93-45.71" fill="#252c37"/><path d="m119.84 24.36-78.81 45.71v91.47" fill="none"/><path d="m119.9 70.07-78.85-45.66" fill="#252c37"/></g></svg>