<?xml version="1.0" ?><svg height="48" viewBox="0 0 48 48" width="48" xmlns="http://www.w3.org/2000/svg"><defs><style>.cls-1{fill:#fed049;}.cls-2{fill:#f1f2f2;}.cls-3{fill:#a4b0c0;}.cls-4{fill:#474c54;}</style></defs><title/><g data-name="28-Research" id="_28-Research"><circle class="cls-1" cx="24" cy="17" r="16"/><circle class="cls-2" cx="24" cy="17" r="12"/><path class="cls-3" d="M26,40v5a2,2,0,0,1-4,0V40a2,2,0,0,1,4,0Z"/><path class="cls-4" d="M24,39a1,1,0,0,0,1-1V33.971a17,17,0,1,0-6.28-.811,1,1,0,0,0,.621-1.9A15,15,0,1,1,24,32a1,1,0,0,0-1,1v4.167A2.818,2.818,0,0,0,21,40v5a3,3,0,0,0,6,0V40a1,1,0,0,0-2,0v5a1,1,0,1,1-2,0V40A.915.915,0,0,1,24,39Z"/><path class="cls-4" d="M20,19a1,1,0,0,0-1,1v1a3,3,0,0,0,3,3h1v1a1,1,0,0,0,2,0V24h1a3,3,0,0,0,3-3V19a3,3,0,0,0-3-3H22a1,1,0,0,1-1-1V13a1,1,0,0,1,1-1h4a1,1,0,0,1,1,1v1a1,1,0,0,0,2,0V13a3,3,0,0,0-3-3H25V9a1,1,0,0,0-2,0v1H22a3,3,0,0,0-3,3v2a3,3,0,0,0,3,3h4a1,1,0,0,1,1,1v2a1,1,0,0,1-1,1H22a1,1,0,0,1-1-1V20A1,1,0,0,0,20,19Z"/></g></svg>