<?xml version="1.0" ?><svg height="48" viewBox="0 0 48 48" width="48" xmlns="http://www.w3.org/2000/svg"><defs><style>.cls-1{fill:#a4b0c0;}.cls-2{fill:#f1f2f2;}.cls-3{fill:#d0d7df;}.cls-4{fill:#474c54;}</style></defs><title/><g data-name="22-Website" id="_22-Website"><path class="cls-1" d="M47,5V9H1V5A4,4,0,0,1,5,1H43S47,1,47,5Z"/><path class="cls-2" d="M47,9V43a4,4,0,0,1-4,4H5a4,4,0,0,1-4-4V9Z"/><path class="cls-3" d="M42,18v3H6V18a2.006,2.006,0,0,1,2-2H40A2.006,2.006,0,0,1,42,18Z"/><path class="cls-4" d="M47,8H6a1,1,0,0,0,0,2H46V43a3,3,0,0,1-3,3H5a3,3,0,0,1-3-3V5A3,3,0,0,1,5,2H43A2.853,2.853,0,0,1,46,5a1,1,0,0,0,2,0,4.821,4.821,0,0,0-5-5H5A5.006,5.006,0,0,0,0,5V43a5.006,5.006,0,0,0,5,5H43a5.006,5.006,0,0,0,5-5V9A1,1,0,0,0,47,8Z"/><path class="cls-4" d="M42,22a1,1,0,0,0,1-1V18a3,3,0,0,0-3-3H8a3,3,0,0,0-3,3v3a1,1,0,0,0,2,0V18a1,1,0,0,1,1-1H40a1,1,0,0,1,1,1v3A1,1,0,0,0,42,22Z"/><path class="cls-4" d="M6,4A1,1,0,0,0,6,6H8A1,1,0,0,0,8,4Z"/><path class="cls-4" d="M12,4a1,1,0,0,0,0,2h2a1,1,0,0,0,0-2Z"/><path class="cls-4" d="M41,4a1,1,0,0,0,0,2h2a1,1,0,0,0,0-2Z"/><path class="cls-4" d="M8,25a1,1,0,0,0-1,1v8a2.916,2.916,0,0,0,3,3,2.886,2.886,0,0,0,2-.716A2.886,2.886,0,0,0,14,37a2.916,2.916,0,0,0,3-3V26a1,1,0,0,0-2,0v7.988A.919.919,0,0,1,14,35a.915.915,0,0,1-1-1V30a1,1,0,0,0-2,0v3.988A.919.919,0,0,1,10,35a.915.915,0,0,1-1-1V26A1,1,0,0,0,8,25Z"/><path class="cls-4" d="M20,25a1,1,0,0,0-1,1v8a2.916,2.916,0,0,0,3,3,2.886,2.886,0,0,0,2-.716A2.886,2.886,0,0,0,26,37a2.916,2.916,0,0,0,3-3V26a1,1,0,0,0-2,0v7.988A1,1,0,1,1,25,34V30a1,1,0,0,0-2,0v3.988A1,1,0,1,1,21,34V26A1,1,0,0,0,20,25Z"/><path class="cls-4" d="M32,25a1,1,0,0,0-1,1v8a2.916,2.916,0,0,0,3,3,2.886,2.886,0,0,0,2-.716A2.886,2.886,0,0,0,38,37a2.916,2.916,0,0,0,3-3V26a1,1,0,0,0-2,0v7.988A1,1,0,1,1,37,34V30a1,1,0,0,0-2,0v3.988A1,1,0,1,1,33,34V26A1,1,0,0,0,32,25Z"/></g></svg>