<?xml version="1.0" ?><svg height="48" viewBox="0 0 48 48" width="48" xmlns="http://www.w3.org/2000/svg"><defs><style>.cls-1{fill:#f1f2f2;}.cls-2{fill:#fed049;}.cls-3{fill:#f6b445;}.cls-4{fill:#a4b0c0;}.cls-5{fill:#474c54;}</style></defs><title/><g data-name="5-Email" id="_5-Email"><path class="cls-1" d="M41,13v5.91L28.88,26.82,24,30l-4.88-3.18L6,18.26V3A1.959,1.959,0,0,1,8,1H39a1.959,1.959,0,0,1,2,2Z"/><path class="cls-2" d="M6,13v5.26L1,15S2,13,6,13Z"/><path class="cls-2" d="M46.6,15.26,41,18.91V13h2A4,4,0,0,1,46.6,15.26Z"/><path class="cls-3" d="M41,18.91l5.6-3.65A3.935,3.935,0,0,1,47,17V43a3.931,3.931,0,0,1-.36,1.64L41,39,29,27l-.12-.18Z"/><path class="cls-2" d="M41,39l5.64,5.64A3.988,3.988,0,0,1,43,47H5a3.988,3.988,0,0,1-3.64-2.36L7,39,19,27l.12-.18L24,30l4.88-3.18L29,27Z"/><path class="cls-3" d="M6,18.26l13.12,8.56L19,27,7,39,1.36,44.64A3.931,3.931,0,0,1,1,43V15Z"/><circle class="cls-4" cx="17" cy="9" r="3"/><path class="cls-5" d="M43,12H42V3a2.916,2.916,0,0,0-3-3H8A2.916,2.916,0,0,0,5,3V13a1,1,0,0,0,2,0V3A.915.915,0,0,1,8,2H39a.915.915,0,0,1,1,1V13a1,1,0,0,0,1,1h2a2.987,2.987,0,0,1,2.21.974L24,28.806,1.546,14.163A1,1,0,0,0,0,15V43a5.006,5.006,0,0,0,5,5H43a5.006,5.006,0,0,0,5-5V17A5.006,5.006,0,0,0,43,12Zm3,31a3,3,0,0,1-3,3H5a3,3,0,0,1-3-3V16.846l15.579,10.16L6.293,38.293a1,1,0,1,0,1.414,1.414L19.291,28.123l4.163,2.714a1,1,0,0,0,1.092,0l4.163-2.714L40.293,39.707a1,1,0,0,0,1.414-1.414L30.421,27.006,46,16.849c0,.05,0,.1,0,.151Z"/><path class="cls-5" d="M21,9a4,4,0,1,0-4,4A4,4,0,0,0,21,9ZM15,9a2,2,0,1,1,2,2A2,2,0,0,1,15,9Z"/><path class="cls-5" d="M25,7h9a1,1,0,0,0,0-2H25a1,1,0,0,0,0,2Z"/><path class="cls-5" d="M25,13h9a1,1,0,0,0,0-2H25a1,1,0,0,0,0,2Z"/><path class="cls-5" d="M25,19h5a1,1,0,0,0,0-2H25a1,1,0,0,0,0,2Z"/></g></svg>