<?xml version="1.0" encoding="UTF-8" standalone="no"?>
<svg
   xmlns:dc="http://purl.org/dc/elements/1.1/"
   xmlns:cc="http://creativecommons.org/ns#"
   xmlns:rdf="http://www.w3.org/1999/02/22-rdf-syntax-ns#"
   xmlns:svg="http://www.w3.org/2000/svg"
   xmlns="http://www.w3.org/2000/svg"
   xmlns:xlink="http://www.w3.org/1999/xlink"
   xmlns:sodipodi="http://sodipodi.sourceforge.net/DTD/sodipodi-0.dtd"
   xmlns:inkscape="http://www.inkscape.org/namespaces/inkscape"
   width="68.26667"
   version="1.1"
   viewBox="0 0 64 64"
   height="68.26667"
   id="svg2"
   inkscape:version="0.92.1 r15371"
   sodipodi:docname="texmaker.svg"
   inkscape:export-filename="/home/xm1/LinuxDocuments/progtexmaker/DarkFlatIcons/texmaker16x16.png"
   inkscape:export-xdpi="22.5"
   inkscape:export-ydpi="22.5">
  <sodipodi:namedview
     pagecolor="#ffffff"
     bordercolor="#666666"
     borderopacity="1"
     objecttolerance="10"
     gridtolerance="10"
     guidetolerance="10"
     inkscape:pageopacity="0"
     inkscape:pageshadow="2"
     inkscape:window-width="1920"
     inkscape:window-height="1015"
     id="namedview24"
     showgrid="true"
     inkscape:zoom="8.48"
     inkscape:cx="9.9615748"
     inkscape:cy="33.030316"
     inkscape:window-x="0"
     inkscape:window-y="0"
     inkscape:window-maximized="1"
     inkscape:current-layer="svg2">
    <inkscape:grid
       type="xygrid"
       id="grid4244"
       originx="0"
       originy="0"
       spacingx="1"
       spacingy="1" />
  </sodipodi:namedview>
  <defs
     id="defs4">
    <linearGradient
       inkscape:collect="always"
       id="linearGradient4303-1">
      <stop
         style="stop-color:#bfc1c1;stop-opacity:1"
         offset="0"
         id="stop4305-2" />
      <stop
         style="stop-color:#f1f2f3;stop-opacity:1"
         offset="1"
         id="stop4307-2" />
    </linearGradient>
    <linearGradient
       gradientTransform="matrix(0.50259673,0,0,0.50259673,0.00311656,-0.51851143)"
       inkscape:collect="always"
       xlink:href="#linearGradient4303-1"
       id="linearGradient4194"
       x1="65"
       y1="103"
       x2="65"
       y2="-32"
       gradientUnits="userSpaceOnUse" />
    <linearGradient
       inkscape:collect="always"
       xlink:href="#linearGradient4303-1"
       id="linearGradient4289"
       gradientUnits="userSpaceOnUse"
       x1="479.84732"
       y1="794.41791"
       x2="479.84732"
       y2="-564.64087"
       gradientTransform="matrix(0.02076056,0,0,0.02076056,33.572731,36.085495)" />
    <filter
       inkscape:collect="always"
       id="filter3977-9"
       style="color-interpolation-filters:sRGB">
      <feGaussianBlur
         inkscape:collect="always"
         stdDeviation="1.6009017"
         id="feGaussianBlur3979-7" />
    </filter>
  </defs>
  <metadata
     id="metadata84">
    <rdf:RDF>
      <cc:Work
         rdf:about="">
        <dc:format>image/svg+xml</dc:format>
        <dc:type
           rdf:resource="http://purl.org/dc/dcmitype/StillImage" />
        <dc:title></dc:title>
      </cc:Work>
    </rdf:RDF>
  </metadata>
  <g
     id="g934"
     transform="matrix(1.1148133,0,0,1.1148133,-3.7688533,-3.6654756)">
    <g
       id="g908">
      <rect
         style="fill:url(#linearGradient4194);fill-opacity:1;fill-rule:evenodd;stroke:none"
         id="rect2982"
         width="52.035847"
         height="52.035847"
         x="6.0671382"
         y="5.9744072" />
      <rect
         style="fill:#4d4d4d;fill-opacity:1;fill-rule:evenodd;stroke:none"
         id="rect3752"
         width="45.446903"
         height="43.892849"
         x="9.3951912"
         y="9.8676434" />
    </g>
    <path
       inkscape:connector-curvature="0"
       d="m 51.586648,43.481196 -0.653957,-0.552231 c -0.201358,-0.170237 -0.498254,-0.161932 -0.689231,0.01869 l -0.361233,0.338397 c -0.30516,-0.1474 -0.629024,-0.251203 -0.96329,-0.311409 L 48.817252,42.47639 c -0.0519,-0.257431 -0.290648,-0.435972 -0.552273,-0.415211 l -0.853259,0.07266 c -0.261583,0.02284 -0.467112,0.23667 -0.475417,0.500329 l -0.01659,0.506558 C 46.591675,43.259058 46.282343,43.42099 46,43.624444 l -0.431798,-0.286496 c -0.220103,-0.145324 -0.512807,-0.103803 -0.683023,0.09758 l -0.552231,0.658109 c -0.170257,0.201378 -0.161952,0.498254 0.01865,0.689251 l 0.37786,0.402734 c -0.130812,0.2948 -0.224235,0.604153 -0.278191,0.921769 l -0.539775,0.110031 c -0.257431,0.0519 -0.435972,0.290648 -0.415212,0.552252 l 0.07266,0.853259 c 0.02284,0.261583 0.23667,0.467112 0.500329,0.475416 l 0.583372,0.01867 c 0.10592,0.278192 0.244995,0.541872 0.413135,0.788902 l -0.32592,0.492025 c -0.145324,0.220062 -0.103803,0.512786 0.09755,0.683023 l 0.653958,0.55223 c 0.201398,0.170237 0.498253,0.161933 0.689271,-0.01868 l 0.427667,-0.400679 c 0.280268,0.130792 0.575047,0.228366 0.878152,0.286496 l 0.118355,0.585448 c 0.0519,0.257431 0.290649,0.435972 0.552231,0.415211 l 0.853259,-0.07266 c 0.261583,-0.02283 0.467113,-0.236649 0.475417,-0.500329 l 0.01868,-0.573013 c 0.311409,-0.110031 0.606188,-0.259507 0.878152,-0.444254 l 0.471285,0.311408 c 0.220061,0.145323 0.512765,0.103802 0.683022,-0.09757 L 52.089094,49.4706 c 0.170216,-0.201377 0.161912,-0.498253 -0.01869,-0.689251 L 51.69047,48.378614 c 0.139116,-0.294799 0.240864,-0.606208 0.298952,-0.925941 l 0.519014,-0.105879 c 0.257431,-0.0519 0.435972,-0.290648 0.415211,-0.552252 l -0.07266,-0.853261 c -0.02284,-0.261583 -0.23667,-0.467112 -0.500329,-0.475417 l -0.521091,-0.01661 c -0.107975,-0.303105 -0.253299,-0.58958 -0.433895,-0.855336 l 0.284398,-0.427667 c 0.149497,-0.220021 0.107976,-0.514821 -0.09342,-0.685058 z m -3.215769,4.932689 c -0.921769,0.07891 -1.735624,-0.608285 -1.812418,-1.530033 -0.07891,-0.921769 0.608305,-1.735604 1.530033,-1.812418 0.921768,-0.07889 1.735624,0.608305 1.812417,1.530053 0.07891,0.92179 -0.608305,1.735604 -1.530032,1.812398 z"
       id="path7"
       style="fill:url(#linearGradient4289);fill-opacity:1;stroke-width:0.02076056" />
    <g
       id="g3439"
       transform="matrix(0.1550676,0,0,0.1550676,-22.779636,-6.4499458)"
       style="overflow:visible;fill:#cccccc">
      <path
         transform="scale(1.0666667)"
         style="fill:#cccccc;fill-opacity:0.85294118;filter:url(#filter3977-9)"
         d="m 326.27987,238.13476 h -31.82536 v -1.72861 -1.7286 l 3.01793,-0.002 c 1.65985,-10e-4 3.64838,-0.18598 4.41892,-0.41067 1.07967,-0.31482 1.52016,-0.70798 1.9205,-1.71412 0.43645,-1.09677 0.51949,-7.16154 0.51949,-37.94533 0,-26.34738 -0.11666,-36.99132 -0.41531,-37.89093 -0.28152,-0.84802 -0.80805,-1.42337 -1.63439,-1.78594 -0.73643,-0.32311 -2.52718,-0.53487 -4.52311,-0.53487 h -3.30403 v -1.92068 -1.92068 h 3.29229 3.29227 l -0.007,-1.63256 c -0.004,-0.89792 -0.24559,-3.51401 -0.53702,-5.81354 -0.29143,-2.29955 -0.79658,-5.14436 -1.12255,-6.32183 -0.32597,-1.17745 -0.98159,-2.9468 -1.45694,-3.93184 -0.47536,-0.98506 -1.40736,-2.27302 -2.07114,-2.86215 -0.66377,-0.58912 -1.93855,-1.4125 -2.83285,-1.82973 -0.89429,-0.41724 -3.11658,-0.99369 -4.93842,-1.281 -1.82183,-0.28732 -6.12056,-0.52361 -9.55272,-0.52511 -4.81487,-0.002 -6.40248,0.12182 -6.95037,0.54246 -0.69342,0.5324 -0.71234,1.4323 -0.80679,38.37395 -0.0609,23.80504 0.0351,38.19261 0.25865,38.81023 0.19544,0.53981 0.89741,1.28943 1.55994,1.66584 0.96037,0.54561 2.29851,0.71224 6.60028,0.82189 l 5.39568,0.13754 v 1.69338 1.69337 h -18.10754 -18.10754 v -1.72861 -1.7286 l 4.66406,-0.009 c 2.56523,-0.005 5.30729,-0.16583 6.09346,-0.35732 0.78616,-0.1915 1.85615,-0.79629 2.37775,-1.34401 l 0.94837,-0.99586 v -37.98028 c 0,-36.80977 -0.0214,-38.00519 -0.69687,-38.7889 -0.65676,-0.76208 -1.05723,-0.80861 -6.95996,-0.80861 -3.44471,0 -7.6282,0.17974 -9.29663,0.39943 -1.66845,0.21968 -3.94911,0.75915 -5.06814,1.1988 -1.11903,0.43966 -2.68345,1.41494 -3.47647,2.16729 -0.79302,0.75234 -1.76931,2.0419 -2.16953,2.86569 -0.40022,0.82378 -1.02844,2.73704 -1.39605,4.25168 -0.36761,1.51465 -0.84356,4.30963 -1.05766,6.21111 -0.2141,1.90146 -0.49119,4.45116 -0.61573,5.66598 l -0.22646,2.20878 h -1.28833 -1.28834 l 0.21123,-1.82465 c 0.11617,-1.00354 0.54746,-6.75116 0.95841,-12.77247 0.41093,-6.02132 0.83526,-11.6825 0.94293,-12.58042 l 0.19577,-1.63257 h 35.27813 c 19.40298,0 35.28072,0.12964 35.28389,0.28811 0.003,0.15845 0.41337,5.90607 0.91158,12.77248 0.4982,6.8664 0.90716,13.04617 0.90877,13.73281 l 0.003,1.24843 h 26.32165 26.32166 l 0.19231,1.24845 c 0.10582,0.68664 0.77186,6.95284 1.48021,13.92487 0.70835,6.97205 1.28773,12.8061 1.28751,12.96455 -2.2e-4,0.15847 -0.54798,0.28811 -1.21724,0.28811 h -1.21684 l -0.60577,-4.51358 c -0.33318,-2.48247 -0.86334,-5.55075 -1.17816,-6.8184 -0.31481,-1.26764 -0.96141,-3.19939 -1.4369,-4.29276 -0.47548,-1.09338 -1.56129,-2.78176 -2.41294,-3.75197 -0.8977,-1.02268 -2.49713,-2.23947 -3.80588,-2.89536 -1.2416,-0.62224 -3.70879,-1.39712 -5.48262,-1.72196 -2.46639,-0.45164 -6.08751,-0.5906 -15.39133,-0.5906 -11.43173,0 -12.21828,0.0444 -13.02975,0.73402 l -0.8636,0.73402 -0.11493,17.51238 -0.11493,17.51239 5.78497,-0.003 c 3.18173,-0.002 7.23824,-0.17799 9.01447,-0.39169 1.77622,-0.21369 3.8339,-0.71403 4.57261,-1.11187 0.73871,-0.39783 1.70563,-1.13145 2.14872,-1.63026 0.44308,-0.49881 1.08489,-1.59601 1.42622,-2.43823 0.38839,-0.95829 0.68662,-3.00464 0.79703,-5.46867 l 0.17641,-3.93739 h 1.23239 1.23237 v 16.70987 16.70986 h -1.28032 -1.28034 l -0.006,-2.97704 c -0.003,-1.63738 -0.22754,-3.96689 -0.49867,-5.1767 -0.27113,-1.20981 -0.91852,-2.78554 -1.43864,-3.50162 -0.52013,-0.71609 -1.7361,-1.7116 -2.70215,-2.21225 -1.67218,-0.86659 -2.17449,-0.91663 -10.46608,-1.04267 l -8.70959,-0.1324 0.11309,19.46375 0.11308,19.46374 0.89624,0.7618 c 0.86558,0.73574 1.3723,0.75686 14.81526,0.61759 13.68007,-0.14174 13.97069,-0.16096 16.92866,-1.12 1.65531,-0.53669 3.89759,-1.59489 4.98287,-2.35158 1.08527,-0.75668 2.56908,-2.13937 3.29734,-3.07263 0.72826,-0.93327 1.8067,-2.8145 2.39653,-4.18052 0.58984,-1.36602 1.32992,-3.52716 1.64463,-4.80253 0.31471,-1.27537 0.82123,-3.68541 1.12559,-5.35566 0.30436,-1.67024 0.55342,-3.16645 0.55345,-3.3249 4e-5,-0.15847 -1.65554,-0.28811 -3.67906,-0.28811 h -3.67913 l 0.11249,-1.63257 c 0.11096,-1.61122 0.13163,-1.63377 1.57572,-1.72403 0.80478,-0.0503 2.36862,-0.28718 3.47519,-0.52642 1.10657,-0.23925 2.93874,-0.92478 4.07148,-1.52341 1.13273,-0.59861 2.89916,-1.91746 3.92539,-2.93077 1.19282,-1.1778 5.76109,-7.848 12.66428,-18.49133 5.93912,-9.157 10.79841,-16.80528 10.79841,-16.99626 0,-0.19098 -5.27385,-8.5157 -11.71967,-18.49938 -6.4458,-9.98367 -12.35107,-18.78621 -13.12281,-19.56116 -0.77173,-0.77496 -2.0413,-1.59509 -2.82125,-1.8225 -0.77995,-0.22741 -2.69384,-0.41444 -4.2531,-0.41562 l -2.83502,-0.002 v -1.7286 -1.72861 h 13.16912 13.16912 v 1.72861 c 0,1.5936 -0.0724,1.7286 -0.92627,1.7286 -0.50945,0 -1.48433,0.24485 -2.16641,0.54412 -0.68206,0.29926 -1.51154,0.97911 -1.84329,1.51078 -0.49571,0.79444 -0.52419,1.12523 -0.15992,1.85672 0.24379,0.48953 4.49286,7.15159 9.4424,14.80456 6.99793,10.8202 9.09536,13.81003 9.43173,13.44472 0.23792,-0.25839 4.14892,-6.15709 8.69113,-13.10823 7.29721,-11.16725 8.25857,-12.81278 8.25857,-14.13603 0,-0.82367 -0.2497,-2.00465 -0.5549,-2.6244 -0.3052,-0.61976 -1.03779,-1.38905 -1.62798,-1.70953 -0.59018,-0.3205 -1.41047,-0.58271 -1.82285,-0.58271 -0.64476,0 -0.74978,-0.24213 -0.74978,-1.7286 v -1.72861 h 11.34007 11.34007 v 1.72861 1.7286 h -1.56928 c -0.86311,0 -2.51201,0.25785 -3.66423,0.573 -1.15223,0.31515 -2.94265,1.02407 -3.97871,1.57539 -1.03607,0.55133 -2.72059,1.89743 -3.7434,2.99137 -1.0228,1.09393 -5.97498,8.27594 -11.00486,15.96002 -5.02987,7.68407 -9.19352,14.09746 -9.25257,14.25197 -0.059,0.15451 5.9275,9.59285 13.30344,20.9741 7.37594,11.38124 13.97891,21.31758 14.67328,22.08074 0.69436,0.76317 1.88762,1.58425 2.65168,1.82463 0.76406,0.24039 2.35779,0.43943 3.54162,0.44232 1.18383,0.003 2.52279,0.10948 2.97548,0.23688 0.68522,0.19283 0.82307,0.49753 0.82307,1.81939 v 1.58776 h -13.18542 -13.18543 l 0.10772,-1.68801 c 0.10626,-1.66411 0.13208,-1.69448 1.82493,-2.14396 0.94445,-0.25076 1.9917,-0.69517 2.32723,-0.98758 0.33552,-0.29242 0.73679,-0.88338 0.89171,-1.31327 0.15491,-0.42988 0.11018,-1.12733 -0.0996,-1.54987 -0.20964,-0.42255 -5.06782,-8.02841 -10.79595,-16.90192 -5.72811,-8.87352 -10.53045,-16.26909 -10.67183,-16.4346 -0.14138,-0.16551 -4.66416,6.46904 -10.05061,14.74347 -5.38647,8.27442 -10.03919,15.66167 -10.33938,16.41612 -0.43044,1.08182 -0.46159,1.66685 -0.14737,2.76816 0.21913,0.76803 0.71818,1.70031 1.10898,2.0717 0.39081,0.3714 1.33876,0.90104 2.10656,1.17698 1.27946,0.45984 1.40539,0.63317 1.50848,2.07622 l 0.11249,1.57449 h -6.60559 c -3.63308,0 -6.60684,0.12965 -6.60838,0.2881 -10e-4,0.15847 -0.82451,6.33823 -1.82884,13.73282 -1.00433,7.3946 -1.82615,13.57437 -1.82626,13.73282 -1.1e-4,0.15846 -14.32162,0.2881 -31.82557,0.2881 z"
         id="path3887-1-3"
         inkscape:connector-curvature="0"
         sodipodi:nodetypes="cccccscssssccccccsssssscsscsscccccccssscscsssssssscccssscscsccccsssscssssssssccccsssssccccccccsssscccsssssssscscssssssssssccccccssssssssssssscccccssssscssscsscccssscssssssssscscsscc" />
      <path
         style="fill:#cccccc;stroke-width:1.06666672"
         d="m 343.52274,251.09395 h -33.94705 v -1.84385 -1.84384 l 3.21913,-0.002 c 1.7705,-0.001 3.8916,-0.19838 4.71351,-0.43805 1.15165,-0.33581 1.6215,-0.75518 2.04853,-1.82839 0.46555,-1.16989 0.55413,-7.63898 0.55413,-40.47502 0,-28.10388 -0.12444,-39.45741 -0.443,-40.417 -0.30029,-0.90455 -0.86192,-1.51826 -1.74335,-1.905 -0.78553,-0.34465 -2.69566,-0.57053 -4.82465,-0.57053 h -3.5243 v -2.04872 -2.04873 h 3.51178 3.51175 l -0.007,-1.74139 c -0.004,-0.95779 -0.26196,-3.74828 -0.57282,-6.20111 -0.31086,-2.45286 -0.84968,-5.48732 -1.19738,-6.74329 -0.3477,-1.25595 -1.04703,-3.14325 -1.55407,-4.19396 -0.50705,-1.05073 -1.50119,-2.42456 -2.20922,-3.05296 -0.70802,-0.6284 -2.06779,-1.50667 -3.02171,-1.95171 -0.9539,-0.44506 -3.32435,-1.05994 -5.26764,-1.3664 -1.94329,-0.30648 -6.5286,-0.55852 -10.18957,-0.56012 -5.13586,-0.002 -6.82931,0.12994 -7.41373,0.57862 -0.73965,0.5679 -0.75983,1.52779 -0.86058,40.93222 -0.065,25.39204 0.0374,40.73878 0.2759,41.39758 0.20847,0.57579 0.95724,1.37539 1.66393,1.77689 1.0244,0.58199 2.45175,0.75972 7.0403,0.87668 l 5.75539,0.14671 v 1.80628 1.80626 h -19.3147 -19.31471 v -1.84385 -1.84384 l 4.97499,-0.01 c 2.73625,-0.005 5.66111,-0.17689 6.49969,-0.38115 0.83857,-0.20426 1.9799,-0.84937 2.53627,-1.43361 l 1.0116,-1.06225 v -40.5123 c 0,-39.26375 -0.0228,-40.53886 -0.74333,-41.37482 -0.70055,-0.81289 -1.12771,-0.86252 -7.42396,-0.86252 -3.67436,0 -8.13675,0.19172 -9.91641,0.42606 -1.77968,0.23432 -4.21238,0.80976 -5.40601,1.27872 -1.19363,0.46897 -2.86235,1.50927 -3.70824,2.31178 -0.84588,0.80249 -1.88726,2.17802 -2.31416,3.05673 -0.4269,0.8787 -1.097,2.91951 -1.48912,4.53513 -0.39212,1.61562 -0.8998,4.59694 -1.12817,6.62518 -0.22838,2.02822 -0.52394,4.7479 -0.65678,6.04371 l -0.24156,2.35603 h -1.37422 -1.37423 l 0.22532,-1.94629 c 0.12391,-1.07044 0.58395,-7.20124 1.0223,-13.62397 0.43833,-6.42274 0.89094,-12.46133 1.00579,-13.41911 l 0.20882,-1.74141 h 37.63001 c 20.69651,0 37.63277,0.13828 37.63615,0.30732 0.003,0.16901 0.44093,6.29981 0.97235,13.62398 0.53141,7.32416 0.96764,13.91591 0.96935,14.64833 l 0.003,1.33166 h 28.07643 28.07644 l 0.20513,1.33168 c 0.11287,0.73241 0.82332,7.41636 1.57889,14.85319 0.75557,7.43685 1.37358,13.65984 1.37334,13.82885 -2.3e-4,0.16904 -0.58451,0.30732 -1.29839,0.30732 h -1.29796 l -0.64615,-4.81448 c -0.35539,-2.64797 -0.9209,-5.9208 -1.25671,-7.27296 -0.33579,-1.35215 -1.0255,-3.41269 -1.53269,-4.57895 -0.50718,-1.16627 -1.66538,-2.96721 -2.5738,-4.0021 -0.95755,-1.09086 -2.66361,-2.38877 -4.05961,-3.08838 -1.32437,-0.66373 -3.95604,-1.49026 -5.84813,-1.83676 -2.63081,-0.48175 -6.49334,-0.62997 -16.41741,-0.62997 -12.19385,0 -13.03284,0.0474 -13.8984,0.78295 l -0.92118,0.78296 -0.12258,18.67987 -0.12259,18.67988 6.17062,-0.003 c 3.39385,-0.002 7.72079,-0.18986 9.61544,-0.4178 1.89463,-0.22794 4.08949,-0.76163 4.87745,-1.186 0.78796,-0.42435 1.81934,-1.20688 2.29197,-1.73894 0.47261,-0.53207 1.15721,-1.70241 1.5213,-2.60078 0.41428,-1.02218 0.73239,-3.20495 0.85016,-5.83325 l 0.18817,-4.19988 h 1.31455 1.31453 v 17.82386 17.82385 h -1.36567 -1.3657 l -0.006,-3.17551 c -0.003,-1.74654 -0.24271,-4.23135 -0.53191,-5.52181 -0.28921,-1.29047 -0.97976,-2.97124 -1.53455,-3.73506 -0.55481,-0.76383 -1.85184,-1.82571 -2.8823,-2.35974 -1.78366,-0.92436 -2.31945,-0.97773 -11.16382,-1.11218 l -9.29021,-0.14122 0.12062,20.76133 0.12061,20.76132 0.95599,0.81259 c 0.92329,0.78479 1.46379,0.80732 15.80295,0.65876 14.59207,-0.15119 14.90207,-0.17169 18.05723,-1.19467 1.76567,-0.57246 4.15743,-1.70121 5.31506,-2.50835 1.15763,-0.80712 2.74036,-2.28199 3.51717,-3.27747 0.77681,-0.99549 1.92714,-3.00213 2.5563,-4.45922 0.62916,-1.45709 1.41858,-3.7623 1.75427,-5.1227 0.33569,-1.36039 0.87598,-3.9311 1.20063,-5.7127 0.32465,-1.78159 0.59031,-3.37755 0.59034,-3.54656 5e-5,-0.16904 -1.76591,-0.30732 -3.92433,-0.30732 h -3.9244 l 0.11999,-1.74141 c 0.11835,-1.71863 0.1404,-1.74269 1.68077,-1.83896 0.85843,-0.0537 2.52652,-0.30633 3.70686,-0.56152 1.18035,-0.2552 3.13466,-0.98643 4.34292,-1.62497 1.20824,-0.63852 3.09243,-2.04529 4.18708,-3.12615 1.27234,-1.25632 6.14516,-8.3712 13.50856,-19.72409 6.33507,-9.76747 11.51831,-17.92563 11.51831,-18.12934 0,-0.20372 -5.62544,-9.08342 -12.50098,-19.73268 -6.87552,-10.64924 -13.17448,-20.03862 -13.99767,-20.86523 -0.82318,-0.82663 -2.17738,-1.70143 -3.00933,-1.944 -0.83195,-0.24257 -2.87343,-0.44207 -4.53664,-0.44333 l -3.02402,-0.002 v -1.84384 -1.84385 h 14.04706 14.04706 v 1.84385 c 0,1.69984 -0.0772,1.84384 -0.98802,1.84384 -0.54341,0 -1.58329,0.26117 -2.31084,0.58039 -0.72753,0.31921 -1.61231,1.04438 -1.96617,1.6115 -0.52876,0.8474 -0.55914,1.20024 -0.17058,1.9805 0.26004,0.52217 4.79238,7.62836 10.07189,15.79153 7.46446,11.54155 9.70172,14.7307 10.06051,14.34104 0.25378,-0.27562 4.42552,-6.56757 9.27054,-13.98212 7.78369,-11.91173 8.80914,-13.66696 8.80914,-15.07843 0,-0.87858 -0.26635,-2.13829 -0.59189,-2.79936 -0.32555,-0.66108 -1.10698,-1.48165 -1.73651,-1.8235 -0.62953,-0.34186 -1.50451,-0.62155 -1.94438,-0.62155 -0.68774,0 -0.79976,-0.25828 -0.79976,-1.84384 v -1.84385 h 12.09607 12.09608 v 1.84385 1.84384 h -1.6739 c -0.92065,0 -2.67948,0.27504 -3.90851,0.6112 -1.22905,0.33616 -3.13883,1.09234 -4.24396,1.68041 -1.10514,0.58809 -2.90196,2.02393 -3.99296,3.1908 -1.09099,1.16686 -6.37331,8.82767 -11.73852,17.02402 -5.36519,8.19634 -9.80642,15.03729 -9.86941,15.2021 -0.0629,0.16481 6.32267,10.23237 14.19034,22.37237 7.86767,12.13999 14.91084,22.73875 15.6515,23.55279 0.74065,0.81405 2.01346,1.68987 2.82846,1.94627 0.81499,0.25642 2.51497,0.46873 3.77772,0.47181 1.26276,0.003 2.69098,0.11678 3.17385,0.25267 0.7309,0.20569 0.87794,0.5307 0.87794,1.94069 v 1.69361 h -14.06445 -14.06446 l 0.11491,-1.80055 c 0.11334,-1.77505 0.14088,-1.80744 1.94659,-2.28689 1.00741,-0.26747 2.12448,-0.74151 2.48238,-1.05342 0.35788,-0.31191 0.78591,-0.94227 0.95115,-1.40082 0.16524,-0.45854 0.11753,-1.20248 -0.10624,-1.65319 -0.22361,-0.45072 -5.40567,-8.56364 -11.51568,-18.02872 -6.10998,-9.46508 -11.23248,-17.35369 -11.38328,-17.53024 -0.15081,-0.17654 -4.97511,6.90031 -10.72065,15.72637 -5.74557,8.82605 -10.70847,16.70578 -11.02867,17.51053 -0.45914,1.15394 -0.49237,1.77797 -0.1572,2.9527 0.23374,0.81924 0.76606,1.81367 1.18291,2.20982 0.41687,0.39616 1.42801,0.96111 2.247,1.25544 1.36476,0.4905 1.49908,0.67538 1.60905,2.21464 l 0.11998,1.67945 h -7.04596 c -3.87528,0 -7.04729,0.1383 -7.04894,0.30731 -10e-4,0.16903 -0.87947,6.76078 -1.95076,14.64834 -1.07128,7.88757 -1.94789,14.47933 -1.94801,14.64834 -1.2e-4,0.16903 -15.27639,0.30731 -33.94727,0.30731 z"
         id="path3887-6"
         inkscape:connector-curvature="0"
         sodipodi:nodetypes="cccccscssssccccccsssssscsscsscccccccssscscsssssssscccssscscsccccsssscssssssssccccsssssccccccccsssscccsssssssscscssssssssssccccccssssssssssssscccccssssscssscsscccssscssssssssscscsscc" />
    </g>
    <text
       inkscape:export-ydpi="57.738472"
       inkscape:export-xdpi="57.738472"
       inkscape:export-filename="/home/xm1/MesDocuments/progtexmaker/newicons/splash.png"
       id="text1441"
       y="40.996319"
       x="14.497287"
       style="font-style:oblique;font-variant:normal;font-weight:bold;font-stretch:normal;font-size:1.24955606px;line-height:0%;font-family:'Bitstream Vera Sans';writing-mode:lr-tb;text-anchor:start;fill:#cccccc;fill-opacity:1;stroke:none;stroke-width:0.10412967"
       xml:space="preserve"><tspan
         style="font-size:8.89688683px;line-height:1;fill:#cccccc;stroke-width:0.10412967"
         y="40.996319"
         x="14.497287"
         id="tspan1443"
         sodipodi:role="line">MAKER</tspan></text>
  </g>
</svg>
